<svg width="104" height="26" viewBox="0 0 104 26" fill="none" xmlns="http://www.w3.org/2000/svg">
<path d="M30.4454 9.33624C30.9254 9.33624 31.3334 9.40424 31.6694 9.54024C32.0054 9.67624 32.3334 9.86824 32.6534 10.1162C32.7414 10.1882 32.8174 10.2242 32.8814 10.2242C33.0414 10.2242 33.1454 9.98424 33.1934 9.50424H33.4694C33.4374 10.0242 33.4214 10.9442 33.4214 12.2642H33.1454C33.0574 11.7442 32.9774 11.3722 32.9054 11.1482C32.8334 10.9162 32.7134 10.6962 32.5454 10.4882C32.3054 10.1762 31.9974 9.94424 31.6214 9.79224C31.2534 9.63224 30.8534 9.55224 30.4214 9.55224C29.9014 9.55224 29.4454 9.72424 29.0534 10.0682C28.6694 10.4122 28.3694 10.9042 28.1534 11.5442C27.9374 12.1762 27.8294 12.9202 27.8294 13.7762C27.8294 14.6482 27.9454 15.3962 28.1774 16.0202C28.4094 16.6442 28.7294 17.1202 29.1374 17.4482C29.5534 17.7682 30.0214 17.9282 30.5414 17.9282C30.9414 17.9282 31.3294 17.8522 31.7054 17.7002C32.0814 17.5482 32.3774 17.3202 32.5934 17.0162C32.7534 16.7922 32.8694 16.5522 32.9414 16.2962C33.0134 16.0402 33.0814 15.6482 33.1454 15.1202H33.4214C33.4214 16.4962 33.4374 17.4562 33.4694 18.0002H33.1934C33.1694 17.7442 33.1334 17.5642 33.0854 17.4602C33.0454 17.3482 32.9854 17.2922 32.9054 17.2922C32.8414 17.2922 32.7574 17.3242 32.6534 17.3882C32.2934 17.6442 31.9494 17.8402 31.6214 17.9762C31.2934 18.1042 30.8974 18.1682 30.4334 18.1682C29.6734 18.1682 29.0054 17.9962 28.4294 17.6522C27.8614 17.3082 27.4174 16.8122 27.0974 16.1642C26.7854 15.5082 26.6294 14.7282 26.6294 13.8242C26.6294 12.9442 26.7894 12.1642 27.1094 11.4842C27.4374 10.8042 27.8894 10.2762 28.4654 9.90024C29.0494 9.52424 29.7094 9.33624 30.4454 9.33624ZM40.3871 9.33624C41.1471 9.33624 41.8111 9.50824 42.3791 9.85224C42.9551 10.1962 43.3991 10.6962 43.7111 11.3522C44.0311 12.0002 44.1911 12.7762 44.1911 13.6802C44.1911 14.5602 44.0271 15.3402 43.6991 16.0202C43.3791 16.7002 42.9271 17.2282 42.3431 17.6042C41.7671 17.9802 41.1111 18.1682 40.3751 18.1682C39.6151 18.1682 38.9471 17.9962 38.3711 17.6522C37.8031 17.3082 37.3591 16.8122 37.0391 16.1642C36.7271 15.5082 36.5711 14.7282 36.5711 13.8242C36.5711 12.9442 36.7311 12.1642 37.0511 11.4842C37.3791 10.8042 37.8311 10.2762 38.4071 9.90024C38.9911 9.52424 39.6511 9.33624 40.3871 9.33624ZM40.3391 9.55224C39.8271 9.55224 39.3751 9.73224 38.9831 10.0922C38.5991 10.4442 38.2991 10.9402 38.0831 11.5802C37.8751 12.2202 37.7711 12.9522 37.7711 13.7762C37.7711 14.6082 37.8871 15.3402 38.1191 15.9722C38.3591 16.6042 38.6791 17.0922 39.0791 17.4362C39.4791 17.7802 39.9271 17.9522 40.4231 17.9522C40.9351 17.9522 41.3831 17.7762 41.7671 17.4242C42.1591 17.0642 42.4591 16.5642 42.6671 15.9242C42.8831 15.2842 42.9911 14.5522 42.9911 13.7282C42.9911 12.8962 42.8711 12.1642 42.6311 11.5322C42.3991 10.9002 42.0831 10.4122 41.6831 10.0682C41.2831 9.72424 40.8351 9.55224 40.3391 9.55224ZM54.4559 9.74424C54.1759 9.76024 53.9679 9.80424 53.8319 9.87624C53.6959 9.94024 53.6039 10.0522 53.5559 10.2122C53.5079 10.3642 53.4839 10.5922 53.4839 10.8962V18.0602H53.2079L48.1679 10.2722V16.6082C48.1679 16.9202 48.1919 17.1522 48.2399 17.3042C48.2959 17.4562 48.3999 17.5682 48.5519 17.6402C48.7039 17.7042 48.9399 17.7442 49.2599 17.7602V18.0002C48.9719 17.9762 48.5639 17.9642 48.0359 17.9642C47.5559 17.9642 47.1839 17.9762 46.9199 18.0002V17.7602C47.1999 17.7442 47.4079 17.7042 47.5439 17.6402C47.6799 17.5682 47.7719 17.4562 47.8199 17.3042C47.8679 17.1442 47.8919 16.9122 47.8919 16.6082V10.7762C47.8919 10.4722 47.8679 10.2522 47.8199 10.1162C47.7719 9.98024 47.6799 9.88824 47.5439 9.84024C47.4159 9.79224 47.2079 9.76024 46.9199 9.74424V9.50424C47.1839 9.52824 47.5559 9.54024 48.0359 9.54024C48.3959 9.54024 48.7079 9.52824 48.9719 9.50424L53.2079 16.0322V10.8962C53.2079 10.5842 53.1799 10.3522 53.1239 10.2002C53.0759 10.0482 52.9759 9.94024 52.8239 9.87624C52.6719 9.80424 52.4359 9.76024 52.1159 9.74424V9.50424C52.4039 9.52824 52.8119 9.54024 53.3399 9.54024C53.8199 9.54024 54.1919 9.52824 54.4559 9.50424V9.74424ZM65.6425 18.3482C65.4665 18.9562 65.2145 19.4122 64.8865 19.7162C64.4945 20.0762 63.9545 20.2562 63.2665 20.2562C62.8985 20.2562 62.5385 20.2002 62.1865 20.0882C61.8345 19.9762 61.3905 19.8002 60.8545 19.5602C60.2625 19.3042 59.7785 19.1122 59.4025 18.9842L59.1145 18.9002C58.7705 19.0202 58.4385 19.0802 58.1185 19.0802C57.7505 19.0802 57.5665 19.0002 57.5665 18.8402C57.5665 18.6722 57.7825 18.5882 58.2145 18.5882C58.4945 18.5882 58.7945 18.6202 59.1145 18.6842C59.3705 18.6122 59.6665 18.5002 60.0025 18.3482C60.2105 18.2522 60.3665 18.1842 60.4705 18.1442C59.7905 18.0802 59.1985 17.8682 58.6945 17.5082C58.1985 17.1482 57.8105 16.6562 57.5305 16.0322C57.2585 15.4002 57.1225 14.6642 57.1225 13.8242C57.1225 12.9442 57.2825 12.1642 57.6025 11.4842C57.9305 10.8042 58.3825 10.2762 58.9585 9.90024C59.5425 9.52424 60.2025 9.33624 60.9385 9.33624C61.6985 9.33624 62.3625 9.50824 62.9305 9.85224C63.5065 10.1962 63.9505 10.6962 64.2625 11.3522C64.5825 12.0002 64.7425 12.7762 64.7425 13.6802C64.7425 14.5122 64.5985 15.2562 64.3105 15.9122C64.0225 16.5602 63.6185 17.0802 63.0985 17.4722C62.5785 17.8562 61.9825 18.0802 61.3105 18.1442V18.1562C61.1185 18.1802 60.9505 18.2122 60.8065 18.2522C60.6705 18.3002 60.4865 18.3722 60.2545 18.4682C59.9665 18.5962 59.7265 18.6882 59.5345 18.7442C60.4225 18.9202 61.1745 19.0602 61.7905 19.1642C62.4145 19.2682 62.9305 19.3202 63.3385 19.3202C63.9065 19.3202 64.3545 19.2362 64.6825 19.0682C65.0185 18.9082 65.2785 18.6442 65.4625 18.2762L65.6425 18.3482ZM58.3225 13.7762C58.3225 14.6082 58.4385 15.3402 58.6705 15.9722C58.9105 16.6042 59.2305 17.0922 59.6305 17.4362C60.0305 17.7802 60.4785 17.9522 60.9745 17.9522C61.4865 17.9522 61.9345 17.7762 62.3185 17.4242C62.7105 17.0642 63.0105 16.5642 63.2185 15.9242C63.4345 15.2842 63.5425 14.5522 63.5425 13.7282C63.5425 12.8962 63.4225 12.1642 63.1825 11.5322C62.9505 10.9002 62.6345 10.4122 62.2345 10.0682C61.8345 9.72424 61.3865 9.55224 60.8905 9.55224C60.3785 9.55224 59.9265 9.73224 59.5345 10.0922C59.1505 10.4442 58.8505 10.9402 58.6345 11.5802C58.4265 12.2202 58.3225 12.9522 58.3225 13.7762ZM74.8508 9.74424C74.5708 9.76024 74.3628 9.80424 74.2268 9.87624C74.0908 9.94024 73.9988 10.0522 73.9508 10.2122C73.9028 10.3642 73.8788 10.5922 73.8788 10.8962V14.5082C73.8788 15.0842 73.8388 15.5802 73.7588 15.9962C73.6868 16.4042 73.5628 16.7562 73.3868 17.0522C73.1868 17.3962 72.8908 17.6682 72.4988 17.8682C72.1148 18.0682 71.6788 18.1682 71.1908 18.1682C70.3108 18.1682 69.6388 17.9522 69.1748 17.5202C68.8228 17.1922 68.5868 16.8202 68.4668 16.4042C68.3468 15.9882 68.2868 15.3682 68.2868 14.5442V10.7762C68.2868 10.4722 68.2628 10.2522 68.2148 10.1162C68.1668 9.98024 68.0748 9.88824 67.9388 9.84024C67.8108 9.79224 67.6028 9.76024 67.3148 9.74424V9.50424C67.6508 9.52824 68.1628 9.54024 68.8508 9.54024C69.4988 9.54024 70.0068 9.52824 70.3748 9.50424V9.74424C70.0868 9.76024 69.8748 9.79224 69.7388 9.84024C69.6108 9.88824 69.5228 9.98024 69.4748 10.1162C69.4268 10.2522 69.4028 10.4722 69.4028 10.7762V14.7482C69.4028 15.3882 69.4468 15.9202 69.5348 16.3442C69.6228 16.7682 69.8028 17.1082 70.0748 17.3642C70.3548 17.6202 70.7628 17.7482 71.2988 17.7482C72.1468 17.7482 72.7428 17.4762 73.0868 16.9322C73.4308 16.3882 73.6028 15.6242 73.6028 14.6402V10.8962C73.6028 10.4642 73.5228 10.1682 73.3628 10.0082C73.2108 9.84824 72.9268 9.76024 72.5108 9.74424V9.50424C72.7988 9.52824 73.2068 9.54024 73.7348 9.54024C74.2148 9.54024 74.5868 9.52824 74.8508 9.50424V9.74424ZM83.4984 16.4642C83.4984 16.9202 83.5264 17.4322 83.5824 18.0002C83.0384 17.9762 82.1224 17.9642 80.8344 17.9642C79.2984 17.9642 78.1384 17.9762 77.3544 18.0002V17.7602C77.6424 17.7442 77.8504 17.7122 77.9784 17.6642C78.1144 17.6162 78.2064 17.5242 78.2544 17.3882C78.3024 17.2522 78.3264 17.0322 78.3264 16.7282V10.7762C78.3264 10.4722 78.3024 10.2522 78.2544 10.1162C78.2064 9.98024 78.1144 9.88824 77.9784 9.84024C77.8504 9.79224 77.6424 9.76024 77.3544 9.74424V9.50424C78.1384 9.52824 79.2984 9.54024 80.8344 9.54024C82.0104 9.54024 82.8464 9.52824 83.3424 9.50424C83.2864 10.0322 83.2584 10.5042 83.2584 10.9202C83.2584 11.2322 83.2704 11.4802 83.2944 11.6642H83.0184C82.9624 11.1442 82.8904 10.7602 82.8024 10.5122C82.7144 10.2562 82.5664 10.0722 82.3584 9.96024C82.1504 9.84024 81.8344 9.78024 81.4104 9.78024H80.4144C80.1264 9.78024 79.9144 9.80424 79.7784 9.85224C79.6504 9.89224 79.5624 9.98024 79.5144 10.1162C79.4664 10.2522 79.4424 10.4722 79.4424 10.7762V13.6082H80.2344C80.5144 13.6082 80.7304 13.5442 80.8824 13.4162C81.0344 13.2802 81.1344 13.1242 81.1824 12.9482C81.2384 12.7642 81.2824 12.5362 81.3144 12.2642L81.3504 12.0242H81.6264C81.6024 12.3602 81.5904 12.7362 81.5904 13.1522V13.7282C81.5904 14.1362 81.6144 14.7042 81.6624 15.4322H81.3864C81.3784 15.3762 81.3544 15.1842 81.3144 14.8562C81.2744 14.5202 81.1624 14.2682 80.9784 14.1002C80.8024 13.9322 80.5544 13.8482 80.2344 13.8482H79.4424V16.7282C79.4424 17.0322 79.4664 17.2522 79.5144 17.3882C79.5624 17.5242 79.6504 17.6162 79.7784 17.6642C79.9144 17.7042 80.1264 17.7242 80.4144 17.7242H81.2904C81.7864 17.7242 82.1624 17.6602 82.4184 17.5322C82.6824 17.3962 82.8744 17.1842 82.9944 16.8962C83.1144 16.6002 83.2024 16.1682 83.2584 15.6002H83.5344C83.5104 15.8162 83.4984 16.1042 83.4984 16.4642ZM88.9149 9.37224C89.2669 9.37224 89.5429 9.41224 89.7429 9.49224C89.9509 9.56424 90.1629 9.67224 90.3789 9.81624C90.5549 9.92824 90.6909 9.98424 90.7869 9.98424C90.8589 9.98424 90.9149 9.94424 90.9549 9.86424C90.9949 9.77624 91.0269 9.64024 91.0509 9.45624H91.3269C91.2869 9.92024 91.2669 10.7362 91.2669 11.9042H90.9909C90.9429 11.2562 90.7549 10.7122 90.4269 10.2722C90.1069 9.82424 89.6389 9.60024 89.0229 9.60024C88.5909 9.60024 88.2389 9.73224 87.9669 9.99624C87.6949 10.2522 87.5589 10.5842 87.5589 10.9922C87.5589 11.2962 87.6269 11.5602 87.7629 11.7842C87.9069 12.0082 88.0869 12.2002 88.3029 12.3602C88.5189 12.5202 88.8269 12.7242 89.2269 12.9722L89.5749 13.1882C90.0789 13.5002 90.4749 13.7762 90.7629 14.0162C91.0589 14.2482 91.2949 14.5162 91.4709 14.8202C91.6469 15.1242 91.7349 15.4802 91.7349 15.8882C91.7349 16.6162 91.4949 17.1802 91.0149 17.5802C90.5349 17.9722 89.9269 18.1682 89.1909 18.1682C88.8069 18.1682 88.4909 18.1282 88.2429 18.0482C88.0029 17.9682 87.7709 17.8602 87.5469 17.7242C87.3709 17.6122 87.2349 17.5562 87.1389 17.5562C87.0669 17.5562 87.0109 17.6002 86.9709 17.6882C86.9309 17.7682 86.8989 17.9002 86.8749 18.0842H86.5989C86.6309 17.6442 86.6469 16.6842 86.6469 15.2042H86.9229C86.9789 16.0122 87.1789 16.6682 87.5229 17.1722C87.8669 17.6762 88.3949 17.9282 89.1069 17.9282C89.5389 17.9282 89.9069 17.7962 90.2109 17.5322C90.5149 17.2602 90.6669 16.8602 90.6669 16.3322C90.6669 15.8842 90.5149 15.5042 90.2109 15.1922C89.9149 14.8802 89.4429 14.5282 88.7949 14.1362C88.3229 13.8482 87.9389 13.5922 87.6429 13.3682C87.3549 13.1442 87.1189 12.8762 86.9349 12.5642C86.7509 12.2442 86.6589 11.8722 86.6589 11.4482C86.6589 10.7762 86.8749 10.2642 87.3069 9.91224C87.7389 9.55224 88.2749 9.37224 88.9149 9.37224ZM101.107 9.50424C101.051 10.0722 101.023 10.5842 101.023 11.0402C101.023 11.4402 101.035 11.7682 101.059 12.0242H100.783C100.719 11.4082 100.639 10.9522 100.543 10.6562C100.447 10.3522 100.279 10.1322 100.039 9.99624C99.7994 9.85224 99.4314 9.78024 98.9354 9.78024H98.2874V16.6082C98.2874 16.9442 98.3194 17.1882 98.3834 17.3402C98.4474 17.4922 98.5594 17.5962 98.7194 17.6522C98.8794 17.7082 99.1394 17.7442 99.4994 17.7602V18.0002C99.0834 17.9762 98.4954 17.9642 97.7354 17.9642C96.9354 17.9642 96.3434 17.9762 95.9594 18.0002V17.7602C96.3194 17.7442 96.5794 17.7082 96.7394 17.6522C96.8994 17.5962 97.0114 17.4922 97.0754 17.3402C97.1394 17.1882 97.1714 16.9442 97.1714 16.6082V9.78024H96.5234C96.0274 9.78024 95.6594 9.85224 95.4194 9.99624C95.1794 10.1322 95.0114 10.3522 94.9154 10.6562C94.8194 10.9522 94.7394 11.4082 94.6754 12.0242H94.3994C94.4234 11.7682 94.4354 11.4402 94.4354 11.0402C94.4354 10.5842 94.4074 10.0722 94.3514 9.50424C95.0154 9.52824 96.1434 9.54024 97.7354 9.54024C99.3194 9.54024 100.443 9.52824 101.107 9.50424Z" fill="#555248"/>
<path d="M21.6818 15.5344C21.1028 17.3757 19.8142 19.6577 17.2917 21.0103C15.7282 21.8487 14.0306 22.1833 12.3831 22.071L12.4257 3.94291C12.4778 3.93862 12.5301 3.93472 12.5825 3.93123C13.0681 3.92769 13.6665 3.94932 14.28 4.01902C14.5536 4.05012 14.8247 4.0902 15.0863 4.1403C15.6587 4.27589 16.2174 4.46652 16.754 4.70967C18.5103 5.50552 20.0281 6.86323 21.0099 8.69434C21.8203 10.2056 22.1598 11.8419 22.0803 13.437C22.0472 13.9746 21.9268 14.7156 21.6818 15.5344ZM11.4254 4.07488L11.3834 21.947C8.74393 21.4708 6.34092 19.838 4.97576 17.292C2.60158 12.8643 4.2663 7.35026 8.694 4.97607C9.26708 4.66878 10.2463 4.28822 11.4254 4.07488Z" stroke="url(#paint0_linear_0_495)"/>
<defs>
<linearGradient id="paint0_linear_0_495" x1="3.75599" y1="11.7235" x2="23.9646" y2="12.9922" gradientUnits="userSpaceOnUse">
<stop offset="0.288448" stop-color="#555248"/>
<stop offset="0.780176" stop-color="#1B1A17" stop-opacity="0"/>
</linearGradient>
</defs>
</svg>
